<?xml version="1.0" encoding="UTF-8"?>
<svg id="Capa_2" data-name="Capa 2" xmlns="http://www.w3.org/2000/svg" viewBox="0 0 262.21 269.62">
  <defs>
    <style>
      .cls-1 {
        fill: #09ff00;
      }
    </style>
  </defs>
  <g id="Capa_1-2" data-name="Capa 1">
    <g>
      <g>
        <rect class="cls-1" x=".5" y=".5" width="261.21" height="268.62"/>
        <path d="M261.21,1v267.62H1V1h260.21M262.21,0H0v269.62h262.21V0h0Z"/>
      </g>
      <polygon points="33.33 18.5 30.98 18.5 30.98 16.16 21.61 16.16 21.61 18.5 19.27 18.5 19.27 37.25 21.61 37.25 21.61 39.59 28.64 39.59 28.64 37.25 26.3 37.25 26.3 34.91 23.95 34.91 23.95 30.22 28.64 30.22 28.64 32.56 30.98 32.56 30.98 34.91 33.33 34.91 33.33 18.5"/>
      <polygon points="59.11 23.19 61.45 23.19 61.45 18.5 59.11 18.5 59.11 16.16 47.39 16.16 47.39 25.53 59.11 25.53 59.11 23.19"/>
      <path d="M0,0v269.62h262.21V0H0ZM75.52,39.59h4.69v-18.75h-4.69v-4.69h2.34v-2.34h2.34v-2.34h4.69v28.12h4.69v4.69h-14.06v-4.69ZM101.45,54.43v54.43h-54.43v-54.43h54.43ZM42.7,11.47h18.75v2.34h2.34v2.34h2.34v9.38h-2.34v2.34h-2.34v2.34h-4.69v2.34h2.34v2.34h2.34v2.34h2.34v2.34h2.34v4.69h-4.69v-2.34h-2.34v-2.34h-2.34v-2.34h-2.34v-2.34h-2.34v-2.34h-2.34v-2.34h-2.34v14.06h-4.69V11.47ZM28.64,41.94v2.34h-9.38v-2.34h-2.34v-2.34h-2.34v-23.44h2.34v-2.34h2.34v-2.34h14.06v2.34h2.34v2.34h2.34v21.09h-2.34v2.34h2.34v4.69h-4.69v-2.34h-4.69ZM110.31,236.71H35.62v-91.14h39.38v64.56h35.31v26.58ZM136.89,139.24h-21.52v-21.52h21.52v21.52ZM210.31,165.82v31.65h-69.62v-31.65h69.62ZM169.8,145.57v-55.7h40.51v55.7h-40.51ZM243.22,236.71h-97.47v-21.52h97.47v21.52ZM243.22,44.3h-127.85v-25.32h127.85v25.32Z"/>
    </g>
  </g>
</svg>