<?xml version="1.0" encoding="UTF-8"?>
<svg id="Capa_2" data-name="Capa 2" xmlns="http://www.w3.org/2000/svg" viewBox="0 0 263.55 270.51">
  <defs>
    <style>
      .cls-1 {
        fill: #09ff00;
      }
    </style>
  </defs>
  <g id="Capa_1-2" data-name="Capa 1">
    <g>
      <g>
        <rect class="cls-1" x="1.84" y="1.39" width="261.21" height="268.62"/>
        <path d="M262.55,1.89v267.62H2.34V1.89h260.21M263.55.89H1.34v269.62h262.21V.89h0Z"/>
      </g>
      <polygon points="23.58 13.6 14.2 13.6 14.2 15.94 11.86 15.94 11.86 34.69 14.2 34.69 14.2 37.04 21.23 37.04 21.23 34.69 18.89 34.69 18.89 32.35 16.55 32.35 16.55 27.66 21.23 27.66 21.23 30 23.58 30 23.58 32.35 25.92 32.35 25.92 15.94 23.58 15.94 23.58 13.6"/>
      <polygon points="51.7 20.63 54.05 20.63 54.05 15.94 51.7 15.94 51.7 13.6 39.98 13.6 39.98 22.97 51.7 22.97 51.7 20.63"/>
      <path d="M0,0v269.62h262.21V0H0ZM63.42,27.66h2.34v-2.34h2.34v-2.34h11.72v-2.34h2.34v-4.69h-2.34v-2.34h-9.38v2.34h-2.34v2.34h-4.69v-4.69h2.34v-2.34h2.34v-2.34h14.06v2.34h2.34v2.34h2.34v9.38h-2.34v2.34h-2.34v2.34h-11.72v2.34h-2.34v7.03h18.75v4.69h-23.44v-14.06ZM101.45,54.43v54.43h-54.43v-54.43h54.43ZM30.61,34.69h-2.34v2.34h2.34v4.69h-4.69v-2.34h-4.69v2.34h-9.38v-2.34h-2.34v-2.34h-2.34V13.6h2.34v-2.34h2.34v-2.34h14.06v2.34h2.34v2.34h2.34v21.09ZM35.3,8.91h18.75v2.34h2.34v2.34h2.34v9.38h-2.34v2.34h-2.34v2.34h-4.69v2.34h2.34v2.34h2.34v2.34h2.34v2.34h2.34v4.69h-4.69v-2.34h-2.34v-2.34h-2.34v-2.34h-2.34v-2.34h-2.34v-2.34h-2.34v-2.34h-2.34v14.06h-4.69V8.91ZM110.31,236.71H35.62v-91.14h39.38v64.56h35.31v26.58ZM136.89,139.24h-21.52v-21.52h21.52v21.52ZM210.31,165.82v31.65h-69.62v-31.65h69.62ZM169.8,145.57v-55.7h40.51v55.7h-40.51ZM243.22,236.71h-97.47v-21.52h97.47v21.52ZM243.22,44.3h-127.85v-25.32h127.85v25.32Z"/>
    </g>
  </g>
</svg>