<?xml version="1.0" encoding="UTF-8"?>
<svg id="Capa_2" data-name="Capa 2" xmlns="http://www.w3.org/2000/svg" viewBox="0 0 262.21 269.62">
  <defs>
    <style>
      .cls-1 {
        fill: #09ff00;
      }
    </style>
  </defs>
  <g id="Capa_1-2" data-name="Capa 1">
    <g>
      <g>
        <rect class="cls-1" x=".5" y=".5" width="261.21" height="268.62"/>
        <path d="M261.21,1v267.62H1V1h260.21M262.21,0H0v269.62h262.21V0h0Z"/>
      </g>
      <polygon points="23.58 14.86 14.2 14.86 14.2 17.21 11.86 17.21 11.86 35.96 14.2 35.96 14.2 38.3 21.23 38.3 21.23 35.96 18.89 35.96 18.89 33.61 16.55 33.61 16.55 28.93 21.23 28.93 21.23 31.27 23.58 31.27 23.58 33.61 25.92 33.61 25.92 17.21 23.58 17.21 23.58 14.86"/>
      <path d="M0,0v269.62h262.21V0H0ZM63.42,33.61h4.69v2.34h2.34v2.34h9.37v-2.34h2.34v-4.69h-2.34v-2.34h-7.03v-4.69h7.03v-2.34h2.34v-4.69h-2.34v-2.34h-9.37v2.34h-2.34v2.34h-4.69v-4.69h2.34v-2.34h2.34v-2.34h14.06v2.34h2.34v2.34h2.34v9.38h-2.34v4.69h2.34v9.38h-2.34v2.34h-2.34v2.34h-14.06v-2.34h-2.34v-2.34h-2.34v-4.69ZM101.45,54.43v54.43h-54.43v-54.43h54.43ZM30.61,35.96h-2.34v2.34h2.34v4.69h-4.69v-2.34h-4.69v2.34h-9.38v-2.34h-2.34v-2.34h-2.34V14.86h2.34v-2.34h2.34v-2.34h14.06v2.34h2.34v2.34h2.34v21.09ZM35.3,10.18h18.75v2.34h2.34v2.34h2.34v9.38h-2.34v2.34h-2.34v2.34h-4.69v2.34h2.34v2.34h2.34v2.34h2.34v2.34h2.34v4.69h-4.69v-2.34h-2.34v-2.34h-2.34v-2.34h-2.34v-2.34h-2.34v-2.34h-2.34v-2.34h-2.34v14.06h-4.69V10.18ZM110.31,236.71H35.62v-91.14h39.38v64.56h35.31v26.58ZM136.89,139.24h-21.52v-21.52h21.52v21.52ZM210.31,165.82v31.65h-69.62v-31.65h69.62ZM169.8,145.57v-55.7h40.51v55.7h-40.51ZM243.22,236.71h-97.47v-21.52h97.47v21.52ZM243.22,44.3h-127.85v-25.32h127.85v25.32Z"/>
      <polygon points="51.7 21.89 54.05 21.89 54.05 17.21 51.7 17.21 51.7 14.86 39.98 14.86 39.98 24.24 51.7 24.24 51.7 21.89"/>
    </g>
  </g>
</svg>